{"accessors":[{"bufferView":0,"componentType":5125,"count":972,"max":[403],"min":[0],"type":"SCALAR"},{"bufferView":1,"componentType":5126,"count":404,"max":[16.0,16.0,16.0],"min":[0.0,3.0,15.0],"type":"VEC3"},{"bufferView":1,"byteOffset":12,"componentType":5126,"count":404,"type":"VEC2"}],"asset":{"generator":"voxconvert 0.0.27.0","version":"2.0"},"bufferViews":[{"buffer":0,"byteLength":3888,"target":34963},{"buffer":0,"byteLength":8080,"byteOffset":3888,"byteStride":20,"target":34962}],"buffers":[{"byteLength":11968,"uri":"data:application/octet-stream;base64,"}],"images":[{"uri":"data:image/png;base64,"}],"materials":[{"name":"12212233866463174690","pbrMetallicRoughness":{"baseColorTexture":{"index":0},"metallicFactor":0.0}}],"meshes":[{"name":"node 1","primitives":[{"attributes":{"POSITION":1,"TEXCOORD_0":2},"indices":0,"material":0,"mode":4}]}],"nodes":[{"children":[1,2,3,4,5,6,7,8,9,10,11],"name":"root"},{"matrix":[1.0,0.0,0.0,0.0,0.0,1.0,0.0,0.0,0.0,0.0,1.0,0.0,-8.0,0.0,-8.0,1.0],"mesh":0,"name":"node 1"},{"name":"Camera 0"},{"name":"Camera 1"},{"name":"Camera 2"},{"name":"Camera 3"},{"name":"Camera 4"},{"name":"Camera 5"},{"name":"Camera 6"},{"name":"Camera 7"},{"name":"Camera 8"},{"name":"Camera 9"}],"scenes":[{"nodes":[0]}],"textures":[{"source":0}]}
