{"accessors":[{"bufferView":0,"componentType":5125,"count":828,"max":[247],"min":[0],"type":"SCALAR"},{"bufferView":1,"componentType":5126,"count":248,"max":[32.0,16.0,33.0],"min":[11.0,0.0,13.0],"type":"VEC3"},{"bufferView":1,"byteOffset":12,"componentType":5126,"count":248,"type":"VEC2"},{"bufferView":2,"componentType":5125,"count":954,"max":[259],"min":[0],"type":"SCALAR"},{"bufferView":3,"componentType":5126,"count":260,"max":[31.0,17.0,35.0],"min":[8.0,1.0,11.0],"type":"VEC3"},{"bufferView":3,"byteOffset":12,"componentType":5126,"count":260,"type":"VEC2"}],"asset":{"generator":"voxconvert 0.0.27.0","version":"2.0"},"bufferViews":[{"buffer":0,"byteLength":3312,"target":34963},{"buffer":0,"byteLength":4960,"byteOffset":3312,"byteStride":20,"target":34962},{"buffer":1,"byteLength":3816,"target":34963},{"buffer":1,"byteLength":5200,"byteOffset":3816,"byteStride":20,"target":34962}],"buffers":[{"byteLength":8272,"uri":"data:application/octet-stream;base64,"},{"byteLength":9016,"uri":"data:application/octet-stream;base64,"}],"images":[{"uri":"data:image/png;base64,"}],"materials":[{"name":"2327712690599969498","pbrMetallicRoughness":{"baseColorTexture":{"index":0},"metallicFactor":0.0}}],"meshes":[{"name":"node 1","primitives":[{"attributes":{"POSITION":1,"TEXCOORD_0":2},"indices":0,"material":0,"mode":4}]},{"name":"node 1","primitives":[{"attributes":{"POSITION":4,"TEXCOORD_0":5},"indices":3,"material":0,"mode":4}]}],"nodes":[{"children":[1,2,3,4,5,6,7,8,9,10,11],"name":"root"},{"matrix":[1.0,0.0,0.0,0.0,0.0,1.0,0.0,0.0,0.0,0.0,1.0,0.0,-20.0,0.0,-20.0,1.0],"mesh":0,"name":"node 1"},{"matrix":[1.0,0.0,0.0,0.0,0.0,1.0,0.0,0.0,0.0,0.0,1.0,0.0,-20.0,0.0,-20.0,1.0],"mesh":1,"name":"node 1"},{"name":"Camera 1"},{"name":"Camera 2"},{"name":"Camera 3"},{"name":"Camera 4"},{"name":"Camera 5"},{"name":"Camera 6"},{"name":"Camera 7"},{"name":"Camera 8"},{"name":"Camera 9"}],"scenes":[{"nodes":[0]}],"textures":[{"source":0}]}
