{"accessors":[{"bufferView":0,"componentType":5125,"count":1902,"max":[1003],"min":[0],"type":"SCALAR"},{"bufferView":1,"componentType":5126,"count":1004,"max":[15.0,14.0,15.0],"min":[1.0,7.0,0.0],"type":"VEC3"},{"bufferView":1,"byteOffset":12,"componentType":5126,"count":1004,"type":"VEC2"},{"bufferView":2,"componentType":5125,"count":1572,"max":[862],"min":[0],"type":"SCALAR"},{"bufferView":3,"componentType":5126,"count":863,"max":[15.0,9.0,15.0],"min":[1.0,0.0,1.0],"type":"VEC3"},{"bufferView":3,"byteOffset":12,"componentType":5126,"count":863,"type":"VEC2"}],"asset":{"generator":"voxconvert 0.0.27.0","version":"2.0"},"bufferViews":[{"buffer":0,"byteLength":7608,"target":34963},{"buffer":0,"byteLength":20080,"byteOffset":7608,"byteStride":20,"target":34962},{"buffer":1,"byteLength":6288,"target":34963},{"buffer":1,"byteLength":17260,"byteOffset":6288,"byteStride":20,"target":34962}],"buffers":[{"byteLength":27688,"uri":"data:application/octet-stream;base64,"},{"byteLength":23548,"uri":"data:application/octet-stream;base64,"}],"images":[{"uri":"data:image/png;base64,"}],"materials":[{"name":"12212233865295422202","pbrMetallicRoughness":{"baseColorTexture":{"index":0},"metallicFactor":0.0}}],"meshes":[{"name":"node 1","primitives":[{"attributes":{"POSITION":1,"TEXCOORD_0":2},"indices":0,"material":0,"mode":4}]},{"name":"node 2","primitives":[{"attributes":{"POSITION":4,"TEXCOORD_0":5},"indices":3,"material":0,"mode":4}]}],"nodes":[{"children":[1,2,3,4,5,6,7,8,9,10,11,12],"name":"root"},{"matrix":[1.0,0.0,0.0,0.0,0.0,1.0,0.0,0.0,0.0,0.0,1.0,0.0,-8.0,0.0,-8.0,1.0],"mesh":0,"name":"node 1"},{"matrix":[1.0,0.0,0.0,0.0,0.0,1.0,0.0,0.0,0.0,0.0,1.0,0.0,-8.0,0.0,-8.0,1.0],"mesh":1,"name":"node 2"},{"name":"Camera 0"},{"name":"Camera 1"},{"name":"Camera 2"},{"name":"Camera 3"},{"name":"Camera 4"},{"name":"Camera 5"},{"name":"Camera 6"},{"name":"Camera 7"},{"name":"Camera 8"},{"name":"Camera 9"}],"scenes":[{"nodes":[0]}],"textures":[{"source":0}]}
